<?xml version="1.0" encoding="iso-8859-1"?>
<!-- Generator: Adobe Illustrator 19.0.0, SVG Export Plug-In . SVG Version: 6.00 Build 0)  -->
<svg version="1.1" id="Layer_1" xmlns="http://www.w3.org/2000/svg" xmlns:xlink="http://www.w3.org/1999/xlink" x="0px" y="0px"
	 viewBox="0 0 482.005 482.005" style="enable-background:new 0 0 482.005 482.005;" xml:space="preserve">
<g transform="translate(0 -540.36)">
	<g>
		<g>
			<path d="M125.352,820.365c32.5,31.5,75.8,48.9,121.9,48.9h0c0.1,0,0.1,0,0.1-0.1c70.2-0.9,132.5-42.4,158.9-105.6
				c1.5-3.5,0.8-7.6-1.8-10.5c-2.5-2.8-6.5-4-10.2-2.9c-13.4,3.9-27.3,5.8-42.7,5.8c-83.9,0-152.2-65.6-152.3-146.4
				c0.9-20.8,4.6-38.4,11.7-55.4c1.5-3.6,0.8-7.6-1.8-10.5c-2.5-2.8-6.5-4-10.2-2.9c-36.1,10.5-67.1,31.5-89.6,60.7
				s-34.4,63.9-34.4,100.3C74.952,746.665,92.852,788.765,125.352,820.365z M185.652,566.765c-3.6,13.2-5.6,27.1-6.3,42.2
				c0,0.1,0,0.3,0,0.4c0,44.5,18.1,86.3,50.8,117.9c32.6,31.5,75.8,48.8,121.5,48.8c9.4,0,18.5-0.7,27.2-2
				c-26.8,45.5-76.4,74.4-131.6,75.2c-83.9,0-152.2-66.2-152.2-147.5C95.052,642.565,130.652,590.465,185.652,566.765z"/>
			<path d="M155.352,906.865l-21.4,22c-3.8,3.9-3.8,10.2,0.2,14.1c2,1.9,4.5,2.8,7,2.8c2.7,0,5.3-1,7.1-3l21.4-22
				c3.8-3.9,3.8-10.2-0.2-14.1C165.552,902.865,159.252,902.865,155.352,906.865z"/>
			<path d="M244.552,906.865l-21.4,22c-3.8,3.9-3.8,10.2,0.2,14.1c2,1.9,4.5,2.8,7,2.8c2.6,0,5.2-1,7.1-3l21.4-22
				c3.8-3.9,3.8-10.2-0.2-14.1C254.752,902.865,248.452,902.865,244.552,906.865z"/>
			<path d="M333.752,906.865l-21.4,22c-3.8,3.9-3.8,10.2,0.2,14.1c2,1.9,4.5,2.8,7,2.8c2.6,0,5.2-1,7.1-3l21.4-22
				c3.8-3.9,3.8-10.2-0.2-14.1C343.952,902.865,337.652,902.865,333.752,906.865z"/>
			<path d="M436.952,906.665c-3.9-3.8-10.2-3.8-14.1,0.2l-21.4,22c-3.8,3.9-3.8,10.2,0.2,14.1c2,1.9,4.5,2.8,7,2.8
				c2.6,0,5.2-1,7.1-3l21.4-22C440.952,916.865,440.952,910.565,436.952,906.665z"/>
			<path d="M66.252,906.865l-21.4,22c-3.8,3.9-3.8,10.2,0.2,14.1c2,1.9,4.5,2.8,7,2.8c2.6,0,5.2-1,7.1-3l21.4-22
				c3.8-3.9,3.8-10.2-0.2-14.1C76.452,902.865,70.152,902.865,66.252,906.865z"/>
			<path d="M200.152,984.165l-21.4,21.1c-3.9,3.8-4,10.2-0.1,14.1c1.9,2,4.5,3,7.1,3c2.6,0,5.1-1,7-2.9l21.4-21.1
				c3.9-3.8,4-10.2,0.1-14.1C210.452,980.365,204.052,980.265,200.152,984.165z"/>
			<path d="M289.352,984.165l-21.4,21.1c-3.9,3.8-4,10.2-0.1,14.1c1.9,2,4.5,3,7.1,3c2.5,0,5.1-1,7-2.9l21.4-21.1
				c3.9-3.8,4-10.2,0.1-14.1C299.652,980.365,293.252,980.265,289.352,984.165z"/>
			<path d="M378.452,984.165l-21.4,21.1c-3.9,3.8-4,10.2-0.1,14.1c1.9,2,4.5,3,7.1,3c2.6,0,5.1-1,7-2.9l21.4-21.1
				c3.9-3.8,4-10.2,0.1-14.1C388.752,980.365,382.352,980.265,378.452,984.165z"/>
			<path d="M111.052,984.165l-21.4,21.1c-3.9,3.8-4,10.2-0.1,14.1c1.9,2,4.5,3,7.1,3c2.5,0,5.1-1,7-2.9l21.4-21.1
				c3.9-3.8,4-10.2,0.1-14.1C121.352,980.365,114.952,980.265,111.052,984.165z"/>
		</g>
	</g>
</g>
<g>
</g>
<g>
</g>
<g>
</g>
<g>
</g>
<g>
</g>
<g>
</g>
<g>
</g>
<g>
</g>
<g>
</g>
<g>
</g>
<g>
</g>
<g>
</g>
<g>
</g>
<g>
</g>
<g>
</g>
</svg>
